<svg xmlns="http://www.w3.org/2000/svg" width="128" height="128" viewBox="0 0 128 128">
  <title>PIANO</title>
  <g>
    <path d="M116.687,53.582H86.31A40.887,40.887,0,0,0,4.562,55.035V112.1a1.751,1.751,0,0,0,1.75,1.75H121.687a1.75,1.75,0,0,0,1.75-1.75V60.332A6.757,6.757,0,0,0,116.687,53.582Zm-5.832,56.769h-93.7V85.466h7.226V97.909a1.75,1.75,0,0,0,1.75,1.75H32.7a1.75,1.75,0,0,0,1.75-1.75V85.466h7.226V97.909a1.75,1.75,0,0,0,1.75,1.75H50a1.75,1.75,0,0,0,1.75-1.75V85.466h7.226V97.909a1.75,1.75,0,0,0,1.75,1.75H67.29a1.75,1.75,0,0,0,1.75-1.75V85.466h7.226V97.909a1.75,1.75,0,0,0,1.75,1.75h6.569a1.75,1.75,0,0,0,1.75-1.75V85.466h7.226V97.909a1.75,1.75,0,0,0,1.75,1.75h6.568a1.75,1.75,0,0,0,1.75-1.75V85.466h7.226ZM27.883,96.159V85.466h3.068V96.159Zm17.294,0V85.466h3.069V96.159Zm17.3,0V85.466H65.54V96.159Zm17.294,0V85.466h3.069V96.159Zm17.3,0V85.466h3.068V96.159Zm22.876,14.192h-5.582V83.716a1.75,1.75,0,0,0-1.75-1.75h-97.2a1.75,1.75,0,0,0-1.75,1.75v26.635h-5.6V55.035a37.387,37.387,0,0,1,74.773,0v.3a1.75,1.75,0,0,0,1.75,1.75h32.1a3.254,3.254,0,0,1,3.25,3.25Z" fill="#241c49" stroke="#0a2119" stroke-miterlimit="10"/>
    <path d="M41.538,25.451A29.734,29.734,0,0,0,15.8,51.7a1.749,1.749,0,0,0,1.546,1.933,1.835,1.835,0,0,0,.2.011,1.75,1.75,0,0,0,1.737-1.557,26.244,26.244,0,0,1,22.72-23.164,1.75,1.75,0,1,0-.455-3.47Z" fill="#241c49" stroke="#0a2119" stroke-miterlimit="10"/>
  </g>
</svg>
